<?xml version="1.0" encoding="UTF-8"?>
<!DOCTYPE svg PUBLIC "-//W3C//DTD SVG 1.1//EN" "http://www.w3.org/Graphics/SVG/1.1/DTD/svg11.dtd">
<svg xmlns="http://www.w3.org/2000/svg" version="1.1" width="80px" height="80px" style="shape-rendering:geometricPrecision; text-rendering:geometricPrecision; image-rendering:optimizeQuality; fill-rule:evenodd; clip-rule:evenodd" xmlns:xlink="http://www.w3.org/1999/xlink">
<g><path style="opacity:1" fill="#E11D48" d="M 57.5,8.5 C 47.0849,18.9199 36.4182,28.9199 25.5,38.5C 21.6278,39.3544 19.1278,41.6877 18,45.5C 20.8161,59.9724 15.9828,63.4724 3.5,56C 1.71119,53.2617 0.377852,50.4284 -0.5,47.5C -0.5,42.5 -0.5,37.5 -0.5,32.5C 0.377827,27.7706 3.04449,24.2706 7.5,22C 17.8333,21.6667 28.1667,21.3333 38.5,21C 38.9574,20.586 39.2907,20.086 39.5,19.5C 32.8665,18.5033 26.1998,18.17 19.5,18.5C 17.3484,10.4459 20.0151,4.94592 27.5,2C 37.2443,-0.538884 46.5776,0.461116 55.5,5C 56.8228,5.81595 57.4894,6.98261 57.5,8.5 Z"/></g>
<g><path style="opacity:1" fill="#ecf2f7" d="M 26.5,6.5 C 30.9764,6.80027 32.3097,8.96693 30.5,13C 24.3389,13.878 23.0055,11.7113 26.5,6.5 Z"/></g>
<g><path style="opacity:1" fill="#E11D48" d="M 57.5,8.5 C 58.6297,15.7535 58.7964,23.0869 58,30.5C 57.3102,33.196 55.8102,35.3626 53.5,37C 44.2479,38.4172 34.9146,38.9172 25.5,38.5C 36.4182,28.9199 47.0849,18.9199 57.5,8.5 Z"/></g>
<g><path style="opacity:0.999" fill="#E11D48" d="M 39.5,58.5 C 39.7031,56.9557 40.3698,55.6223 41.5,54.5C 46.3146,50.14 50.6479,45.4734 54.5,40.5C 56.807,39.0226 58.6403,37.0226 60,34.5C 60.4992,29.8452 60.6658,25.1785 60.5,20.5C 68.2461,18.8983 73.7461,21.565 77,28.5C 79.4567,37.4415 78.7901,46.1082 75,54.5C 73.4207,56.0412 71.5873,57.2078 69.5,58C 59.5056,58.4998 49.5056,58.6665 39.5,58.5 Z"/></g>
<g><path style="opacity:1" fill="#E11D48" d="M 54.5,40.5 C 50.6479,45.4734 46.3146,50.14 41.5,54.5C 40.3698,55.6223 39.7031,56.9557 39.5,58.5C 39.1667,58.5 38.8333,58.5 38.5,58.5C 33.187,63.4783 27.8537,68.4783 22.5,73.5C 21.2101,72.9423 20.3768,71.9423 20,70.5C 19.1301,62.103 19.4635,53.7697 21,45.5C 22.5793,43.9588 24.4127,42.7922 26.5,42C 35.8797,41.7807 45.2131,41.2807 54.5,40.5 Z"/></g>
<g><path style="opacity:0.999" fill="#E11D48" d="M 38.5,58.5 C 38.5,59.5 38.5,60.5 38.5,61.5C 45.1667,61.5 51.8333,61.5 58.5,61.5C 60.5603,69.8862 57.5603,75.3862 49.5,78C 40.9623,79.1582 32.6289,78.4915 24.5,76C 23.6195,75.2917 22.9528,74.4584 22.5,73.5C 27.8537,68.4783 33.187,63.4783 38.5,58.5 Z"/></g>
<g><path style="opacity:1" fill="#fffbf2" d="M 47.5,66.5 C 52.1225,65.4082 53.9558,67.0748 53,71.5C 47.4205,73.7516 45.5871,72.0849 47.5,66.5 Z"/></g>
</svg>
